<svg width="23" height="23" viewBox="0 0 23 23" fill="none" xmlns="http://www.w3.org/2000/svg">
<path d="M19.1666 12.4583V5.75001C19.1666 5.24168 18.9647 4.75417 18.6053 4.39472C18.2458 4.03528 17.7583 3.83334 17.25 3.83334H5.74998C5.24165 3.83334 4.75414 4.03528 4.39469 4.39472C4.03525 4.75417 3.83331 5.24168 3.83331 5.75001V12.4583M19.1666 12.4583V17.25C19.1666 17.7583 18.9647 18.2459 18.6053 18.6053C18.2458 18.9647 17.7583 19.1667 17.25 19.1667H5.74998C5.24165 19.1667 4.75414 18.9647 4.39469 18.6053C4.03525 18.2459 3.83331 17.7583 3.83331 17.25V12.4583M19.1666 12.4583H16.6884C16.4343 12.4584 16.1905 12.5594 16.0109 12.7391L13.6974 15.0526C13.5178 15.2323 13.274 15.3333 13.0199 15.3333H9.98006C9.72592 15.3333 9.4822 15.2323 9.30252 15.0526L6.98911 12.7391C6.80942 12.5594 6.56571 12.4584 6.31156 12.4583H3.83331" stroke="#4E4E4E" stroke-width="2" stroke-linecap="round" stroke-linejoin="round"/>
</svg>
