<svg width="23" height="23" viewBox="0 0 23 23" fill="none" xmlns="http://www.w3.org/2000/svg">
<g clip-path="url(#clip0_14_22)">
<path d="M14.9021 12.4583C15.6208 12.4583 16.2533 12.0654 16.5791 11.4712L20.01 5.25166C20.3646 4.61916 19.9046 3.83332 19.1762 3.83332H4.9929L4.09206 1.91666H0.958313V3.83332H2.87498L6.32498 11.1071L5.03123 13.4454C4.33165 14.7296 5.25165 16.2917 6.70831 16.2917H18.2083V14.375H6.70831L7.76248 12.4583H14.9021ZM5.90331 5.74999H17.5471L14.9021 10.5417H8.17456L5.90331 5.74999ZM6.70831 17.25C5.65415 17.25 4.80123 18.1125 4.80123 19.1667C4.80123 20.2208 5.65415 21.0833 6.70831 21.0833C7.76248 21.0833 8.62498 20.2208 8.62498 19.1667C8.62498 18.1125 7.76248 17.25 6.70831 17.25ZM16.2916 17.25C15.2375 17.25 14.3846 18.1125 14.3846 19.1667C14.3846 20.2208 15.2375 21.0833 16.2916 21.0833C17.3458 21.0833 18.2083 20.2208 18.2083 19.1667C18.2083 18.1125 17.3458 17.25 16.2916 17.25Z" fill="#4E4E4E"/>
</g>
<defs>
<clipPath id="clip0_14_22">
<rect width="23" height="23" fill="white"/>
</clipPath>
</defs>
</svg>
