<svg width="23" height="23" viewBox="0 0 23 23" fill="none" xmlns="http://www.w3.org/2000/svg">
<path d="M15.3334 6.70833C15.3334 7.725 14.9295 8.70002 14.2106 9.41891C13.4917 10.1378 12.5167 10.5417 11.5 10.5417C10.4834 10.5417 9.50833 10.1378 8.78944 9.41891C8.07055 8.70002 7.66669 7.725 7.66669 6.70833C7.66669 5.69167 8.07055 4.71665 8.78944 3.99776C9.50833 3.27887 10.4834 2.875 11.5 2.875C12.5167 2.875 13.4917 3.27887 14.2106 3.99776C14.9295 4.71665 15.3334 5.69167 15.3334 6.70833ZM11.5 13.4167C9.72086 13.4167 8.01457 14.1234 6.75651 15.3815C5.49846 16.6395 4.79169 18.3458 4.79169 20.125H18.2084C18.2084 18.3458 17.5016 16.6395 16.2435 15.3815C14.9855 14.1234 13.2792 13.4167 11.5 13.4167Z" stroke="#4E4E4E" stroke-width="2" stroke-linecap="round" stroke-linejoin="round"/>
</svg>
